<?xml version="1.0" encoding="utf-8"?>
<!-- Generator: Adobe Illustrator 24.0.1, SVG Export Plug-In . SVG Version: 6.00 Build 0)  -->
<svg version="1.1" id="Layer_1" xmlns="http://www.w3.org/2000/svg" xmlns:xlink="http://www.w3.org/1999/xlink" x="0px" y="0px"
	 viewBox="0 0 1366 768" style="enable-background:new 0 0 1366 768;" xml:space="preserve">
<style type="text/css">
	.st0{opacity:0.7;fill:#FFFFFF;}
</style>
<path class="st0" d="M-520.98,365.03c-1.99,0-3.94,0.07-5.85,0.21c-1.15-11.31-14.34-20.24-30.46-20.24
	c-8.84,0-16.8,2.69-22.37,6.98c-7.92-5.44-20.74-8.98-35.21-8.98c-21.38,0-39.17,7.72-42.86,17.91c-3.34-0.89-6.95-1.39-10.72-1.39
	c-16.87,0-30.55,9.78-30.55,21.85c0,10.6,10.55,19.43,24.56,21.42c-0.01,0.2-0.02,0.41-0.02,0.61c0,12.07,20.51,21.85,45.82,21.85
	c17.14,0,32.08-4.49,39.94-11.13c5.55,4.09,13.31,6.63,21.9,6.63c12.95,0,24.01-5.76,28.45-13.9c5.31,1.2,11.18,1.88,17.37,1.88
	c23.65,0,42.82-9.78,42.82-21.85C-478.16,374.81-497.33,365.03-520.98,365.03z"/>
</svg>
