<?xml version="1.0" encoding="utf-8"?>
<!-- Generator: Adobe Illustrator 24.0.1, SVG Export Plug-In . SVG Version: 6.00 Build 0)  -->
<svg version="1.1" id="Layer_1" xmlns="http://www.w3.org/2000/svg" xmlns:xlink="http://www.w3.org/1999/xlink" x="0px" y="0px"
	 viewBox="0 0 1920 3115" style="enable-background:new 0 0 1920 3115;" xml:space="preserve">
<style type="text/css">
	.st0{fill:none;}
	.st1{fill:#F4D3C1;}
	.st2{fill:#2B303B;}
	.st3{fill:#4C372D;}
	.st4{fill:#2A3A22;}
	.st5{fill:#7C5036;}
	.st6{fill:#FBDDCA;}
	.st7{fill:#A51F20;}
	.st8{fill:#FF8A14;}
	.st9{fill:#AD7209;}
	.st10{fill:#EDD2A6;}
</style>
<path class="st0" d="M227.35,203.91c84.08,97.4,222.55,120.75,346.26,156.15c105.51,30.2,207.33,73.29,302.46,128.02
	c67.47,38.81,137.63,92.91,146.94,170.18c6.07,50.4-16.31,100.95-49.45,139.4s-76.28,66.72-119.18,93.86
	c-53.73,34-109.1,67.53-170.72,83.2c-52.23,13.29-106.78,13.19-160.42,18.36c-87.93,8.47-174.46,31.39-255.05,67.56
	c-68.41,30.7-138.38,78.77-154.17,152.07c-14.74,68.43,24.37,139.44,79.47,182.61c55.1,43.18,123.87,64.19,190.91,84.34
	c83.62,25.12,167.23,50.25,250.85,75.37c92.98,27.94,195.09,62.99,241.72,148.15c46.2,84.38-63.99,222.5-123.41,298.15
	c-59.42,75.65-145.8,124.5-230.77,169.6C464.04,2202.09,389.47,2224.38,360,2284c-168.6,341.06,255,272,393,295"/>
<g>
	<g>
		<g>
			<path class="st1" d="M286.81,244.2c0,0,29.06,23.45,29.62,28.83c0.56,5.38-1.06,46.39-1.06,46.39h-7.87l-6.54-38.87l-30.59-27.97
				L286.81,244.2z"/>
			<polygon class="st2" points="315.78,308.18 305.61,308.18 309.45,354.07 324.55,354.07 316.54,348.59 			"/>
		</g>
		<g>
			<path class="st1" d="M262.69,255.89c0,0,32.29,31.32,35.91,35.76c3.62,4.43,25.98,41.6,25.98,41.6l-7.04,4.51l-28.97-31.63
				l-37.6-35.65L262.69,255.89z"/>
			<polygon class="st2" points="316.7,320.26 307.12,326.39 336.16,362.27 350.17,353.31 338.3,353.7 			"/>
		</g>
	</g>
	<path class="st3" d="M95.69,228.04l260.77,7.21l0-0.03l2.79,0.1l4.22,0.12c0.53,0.01,1.04,0.05,1.55,0.1l3.67,0.14
		c2.34,0.09,4.19,1.92,4.29,4.17c0.01,0.08,0.01,0.16,0.01,0.23c0,0.01,0,0.03,0,0.04c0,0.03,0,0.05,0,0.08
		c-0.09,2.41-2.16,4.28-4.63,4.19l-6.7-0.25l-266.23-7.36c-5.33-0.15-9.59-2.22-9.52-4.64C85.99,229.73,90.36,227.89,95.69,228.04z"
		/>
	<path class="st1" d="M295.56,222.43c1.37-0.11,2.69,1.1,3.63,3.07c0.81,0.62,1.79,1.98,2.6,3.7c1.21,2.59,1.54,4.98,0.75,5.36
		c-0.47,0.22-1.22-0.32-2.01-1.32c-0.25,3.56-1.66,6.24-3.57,6.4c-2.35,0.19-4.56-3.51-4.95-8.26
		C291.63,226.62,293.22,222.62,295.56,222.43z"/>
	<path class="st4" d="M275.22,143.79c0,0,14.23,22.57,19.99,42.22c5.15,17.53,6.78,37.59,5.48,39.17c-3.36,4.06-9.9,2.89-9.9,2.89
		l-10.97-32.15l-21.19-25.45L275.22,143.79z"/>
	<g>
		<g>
			<path class="st5" d="M238.2,92.22c-3.45,1.39-6.59,3.47-9.21,6.11c-4.34,4.4-14.25,34.27-30.07,42.18
				c-23.55,11.78-12.18,38.63,0.81,37c11.69-1.46,55.38-28.51,62.72-60.62c1.37-5.99-0.26-11.95-2.12-17.8
				c-1.83-5.76-5.71-10.39-9.33-10.39C247.68,88.71,242.35,90.55,238.2,92.22"/>
			<polygon class="st1" points="230.89,140.16 248.46,140.25 248.46,115.18 232.75,115.18 			"/>
			<path class="st6" d="M224.83,104.19c0.4-2.87,2.5-2.28,4.38-1.11c0.72-9.24,5.96-16.54,12.94-17.16
				c6.05-0.54,11.71,4.08,14.64,11.16c0.83,2,0.38,4.2,1.77,6.52c1.34,2.23,3.76,3.29,3.52,4.71c-0.25,1.47-1.67,2.44-3.24,3.06
				c-0.59,8.57-4.28,15.17-10.92,15.76c-7.54,0.68-16.54-6.64-18.35-16.76l0,0.01C229.58,110.38,224.09,109.56,224.83,104.19"/>
		</g>
		<g>
			<path class="st5" d="M242.38,92.13c0,0-7.48,18.5-12.31,12.87C225.04,99.13,242.38,92.13,242.38,92.13"/>
			<path class="st7" d="M226.15,88.37c0.41-0.39,0.82-0.76,1.23-1.12l-3.84-2.66c-0.38-0.26-0.44-0.8-0.14-1.15l0.68-0.77
				c0.29-0.32,0.79-0.35,1.1-0.05l3.63,3.4c10.48-8.48,19.42-7.63,24.34-3.63c5.33,4.34,3.47,9.28,3.47,9.28l-33.68,13.24
				C222.96,104.92,214.52,99.31,226.15,88.37"/>
		</g>
	</g>
	<path class="st8" d="M314.5,260.56c0,0-36.48-35.33-47.15-46.35c-10.6-10.96-3.07-32.87-3.07-32.87l10.93-37.54l-21.22-7.3
		l-15.53,8.87l-11.11-9.08l-13.48,4.45l-13.14,4.49c0,0,9.93,17.31,7.81,30.94c-2.61,16.76-5.61,31.34-6.37,37.24
		c-0.89,6.89-0.53,19.61,15.84,35.45c23.08,22.32,44.82,49.13,44.82,49.13L314.5,260.56z"/>
	<g>
		<path class="st1" d="M188.78,229c1.32,0.39,2.11,2,2.28,4.17c0.53,0.86,0.96,2.49,1.09,4.39c0.19,2.85-0.36,5.21-1.23,5.26
			c-0.52,0.04-1.03-0.74-1.4-1.96c-1.52,3.23-3.8,5.22-5.64,4.68c-2.26-0.67-2.99-4.92-1.64-9.49
			C183.6,231.49,186.52,228.33,188.78,229z"/>
		<path class="st4" d="M183.88,166.85"/>
		<path class="st4" d="M176.21,190.7c-1.13,3.42-1.36,7.07-0.65,10.6l5.72,28.57c0.47,3.23,3.92,4.72,8.43,4.54
			c0.63-0.03,2.65-0.94,3.21-1.32c3.61-2.38,1.66-35.05,1.66-35.05l14.13-23.19l0.99-32.76c0,0-12.62,1.91-17.27,10.1
			S176.21,190.7,176.21,190.7z"/>
	</g>
	<path class="st9" d="M53.64,226.55c2.01-2.54,4.57-4.25,7.21-5.41c-2.64-1.18-4.74-2.6-6.12-4.3c0,0,2.46-0.6,3.99-1.81
		c8.64-6.87,16.98-13.21,43.93-9.4c13.58,1.37,23.94,8.77,26.48,18.63c1.9-5.93,6.12-9.2,10.25-8.92c5.48,0.37,9.41,8.15,8.78,17.36
		c-0.63,9.22-5.58,16.38-11.05,16.01c-4.35-0.3-7.91-3.1-8.8-9.75c-3.82,8.39-20.03,15.84-31.99,15.98
		c-23.99,0.98-50.47-23.13-50.47-23.13S48.35,233.21,53.64,226.55z"/>
	<path class="st3" d="M128.14,242.12c-0.08,1.46,0.63,2.68,1.58,2.73l0,0c0.95,0.05,1.78-1.09,1.86-2.55l1.05-20.35
		c0.08-1.46-0.63-2.68-1.58-2.73l0,0c-0.95-0.05-1.78,1.09-1.86,2.55L128.14,242.12z"/>
	<path class="st3" d="M124.57,241.93c-0.08,1.46,0.63,2.68,1.58,2.73l0,0c0.95,0.05,1.78-1.09,1.86-2.55l1.05-20.35
		c0.08-1.46-0.63-2.68-1.58-2.73l0,0c-0.95-0.05-1.78,1.09-1.86,2.55L124.57,241.93z"/>
	<g>
		<path class="st10" d="M243.1,158.45c5.41-3.83-3.66-13.59-3.66-13.59l0.37,10.66C239.8,155.52,237.69,162.29,243.1,158.45z
			 M240.97,157.35l0.37-2.85l-1.37-7.89l2.14,6.39l0.25,2.4l-0.25,0.98L240.97,157.35z"/>
		<path class="st10" d="M238.35,154.07l1.52-7.74c0,0-7.77,6.06-4.27,9.49C239.1,159.26,238.35,154.07,238.35,154.07z
			 M236.62,154.79l-0.12-1.11l0.46-1.73l2.31-4.42l-2.12,5.88l0.29,1.79L236.62,154.79z"/>
	</g>
	<path class="st4" d="M223.15,135.99l2.61-3.34c0.9-1.15,2.57-1.36,3.72-0.46l10.2,7.97l10.2-7.97c1.15-0.9,2.82-0.7,3.72,0.46
		l2.61,3.34c0.9,1.15,0.7,2.82-0.46,3.72l-11.7,9.13c-1.15,0.9-2.82,0.7-3.72-0.46l-0.65-3.71l-0.65,3.71
		c-0.9,1.15-2.57,1.36-3.72,0.46l-11.7-9.13C222.45,138.81,222.25,137.14,223.15,135.99z"/>
	<g>
		<g>
			<path class="st3" d="M147.56,220.62c-6.4-2.91-13.02-2.44-18.54,2.05c-1.5,1.22,0.64,3.33,2.12,2.12
				c4.39-3.57,9.83-3.89,14.9-1.59C147.79,224,149.32,221.42,147.56,220.62L147.56,220.62z"/>
		</g>
	</g>
	<g>
		<g>
			<path class="st3" d="M148.81,225.56c-5.85-2.62-12.69-2.78-18.31,0.53c-1.66,0.98-0.15,3.58,1.51,2.59
				c4.64-2.74,10.42-2.71,15.28-0.53C149.04,228.93,150.57,226.35,148.81,225.56L148.81,225.56z"/>
		</g>
	</g>
	<g>
		<g>
			<path class="st3" d="M148.98,230.65c-6.18-2.63-12.8-2.85-19.02-0.22c-1.77,0.75-0.25,3.33,1.51,2.59
				c5.11-2.16,10.92-1.93,15.99,0.22C149.22,233.99,150.76,231.41,148.98,230.65L148.98,230.65z"/>
		</g>
	</g>
	<g>
		<g>
			<path class="st3" d="M147.56,233.73c-5.21,0.93-10.63,0.45-15.47-1.74c-1.74-0.79-3.27,1.79-1.51,2.59
				c5.63,2.55,11.71,3.13,17.78,2.04C150.25,236.28,149.45,233.39,147.56,233.73L147.56,233.73z"/>
		</g>
	</g>
	<g>
		<g>
			<path class="st3" d="M146.4,238.8c-4.94,0.72-10.42,1.42-14.62-1.93c-1.5-1.19-3.63,0.92-2.12,2.12
				c5.17,4.12,11.35,3.6,17.54,2.7C149.1,241.42,148.29,238.53,146.4,238.8L146.4,238.8z"/>
		</g>
	</g>
	<g>
		<g>
			<path class="st3" d="M143.92,243.69c-4.92,0.47-9.85-0.39-14.09-3.01c-1.65-1.02-3.15,1.57-1.51,2.59
				c4.64,2.88,10.2,3.94,15.6,3.42C145.82,246.51,145.84,243.51,143.92,243.69L143.92,243.69z"/>
		</g>
	</g>
	<g>
		<g>
			<path class="st3" d="M119.41,215.49c-9.9-4.93-20.73-7.54-31.81-7.39c-5.2,0.07-10.44,0.75-15.48,2.02
				c-5.95,1.5-11.45,4.48-17.51,5.52c-1.9,0.33-1.09,3.22,0.8,2.89c4.98-0.86,9.45-3.13,14.25-4.61c5.27-1.62,10.74-2.56,16.25-2.78
				c11.11-0.44,22.05,1.98,31.99,6.93C119.62,218.94,121.14,216.35,119.41,215.49L119.41,215.49z"/>
		</g>
	</g>
	<g>
		<g>
			<path class="st3" d="M119.99,222.74c-9.99-1.95-20.08-3.33-30.24-4.01c-9.53-0.64-20.03-1.64-29.42,0.54
				c-1.88,0.44-1.08,3.33,0.8,2.89c9.02-2.09,19.46-1.05,28.62-0.43c9.9,0.66,19.71,2.01,29.44,3.91
				C121.08,226,121.89,223.11,119.99,222.74L119.99,222.74z"/>
		</g>
	</g>
	<g>
		<g>
			<path class="st3" d="M122.12,236.24c-11.06,7.35-27.59,6.61-40.2,4.55c-12.08-1.97-24.04-6.68-35.67-10.43
				c-1.84-0.59-2.63,2.3-0.8,2.89c12.95,4.18,26.32,9.53,39.9,11c12.45,1.35,27.44,1.78,38.29-5.42
				C125.24,237.77,123.74,235.17,122.12,236.24L122.12,236.24z"/>
		</g>
	</g>
	<g>
		<g>
			<path class="st3" d="M100.09,203.48c-8.54-0.97-16.8-1.53-25.11,1.03c-3.44,1.06-6.82,2.46-9.99,4.19
				c-3.82,2.08-7.06,5.05-11.02,6.84c-1.1,0.5-0.84,2.02,0,2.59c1.85,1.25,3.61,2.63,5.46,3.88c1.61,1.08,3.11-1.52,1.51-2.59
				c-1.85-1.25-3.61-2.63-5.46-3.88c0,0.86,0,1.73,0,2.59c3.2-1.45,5.81-3.71,8.78-5.54c3.6-2.21,7.48-3.95,11.51-5.19
				c8.07-2.48,16.06-1.86,24.31-0.93C102,206.69,101.99,203.69,100.09,203.48L100.09,203.48z"/>
		</g>
	</g>
	<g>
		<g>
			<path class="st3" d="M59.98,219.42c-2.55,1.44-4.59,3.37-6.64,5.45c-1.91,1.94-4.45,5.74-7.5,5.44
				c-1.29-0.13-1.99,1.73-1.06,2.56c12,10.76,25.61,18.95,41.42,22.65c14.9,3.49,28.29-1.77,39.76-11.2
				c1.49-1.23-0.64-3.34-2.12-2.12c-11.7,9.62-24.82,13.67-39.65,9.71c-14.2-3.79-26.41-11.41-37.28-21.16
				c-0.35,0.85-0.71,1.71-1.06,2.56c6.18,0.61,10.84-8.58,15.65-11.3C63.18,221.06,61.67,218.46,59.98,219.42L59.98,219.42z"/>
		</g>
	</g>
	<g>
		<g>
			<path class="st3" d="M111.3,231.07c-9.21-0.71-18.42-1.43-27.64-2.14c-9.18-0.71-19.31-0.4-27.88-4.1
				c-1.75-0.76-3.28,1.83-1.51,2.59c8.03,3.47,16.85,3.54,25.45,4.21c10.53,0.82,21.06,1.63,31.59,2.45
				C113.22,234.22,113.21,231.22,111.3,231.07L111.3,231.07z"/>
		</g>
	</g>
	<g>
		<g>
			<path class="st3" d="M128.37,218.01c-4.87-7.83-14.26-11.82-22.95-13.53c-1.89-0.37-2.69,2.52-0.8,2.89
				c7.89,1.55,16.7,5,21.16,12.15C126.8,221.16,129.39,219.66,128.37,218.01L128.37,218.01z"/>
		</g>
	</g>
	<path class="st9" d="M127.6,240.99c-0.07,1.26,0.17,2.3,0.51,2.31l0,0c0.35,0.02,0.68-0.99,0.75-2.25l0.91-17.56
		c0.07-1.26-0.17-2.3-0.51-2.31l0,0c-0.35-0.02-0.68,0.99-0.75,2.25L127.6,240.99z"/>
	<g>
		<g>
			<path class="st3" d="M122.6,228.26c-7.4-3.27-15.03-4.33-23.05-3.23c-1.9,0.26-1.09,3.15,0.8,2.89
				c7.12-0.98,14.16,0.03,20.74,2.93C122.83,231.62,124.36,229.04,122.6,228.26L122.6,228.26z"/>
		</g>
	</g>
	<g>
		<g>
			<path class="st3" d="M79.54,233.77c-5.36,0.35-10.51-0.56-15.38-2.85c-1.74-0.82-3.26,1.77-1.51,2.59
				c5.34,2.51,10.99,3.64,16.89,3.26C81.46,236.65,81.47,233.65,79.54,233.77L79.54,233.77z"/>
		</g>
	</g>
	<g>
		<g>
			<path class="st3" d="M99.41,247.13c-6.4,0.82-12.61,0.23-18.74-1.83c-1.83-0.62-2.62,2.28-0.8,2.89
				c6.37,2.14,12.87,2.79,19.53,1.93C101.3,249.89,101.33,246.89,99.41,247.13L99.41,247.13z"/>
		</g>
	</g>
	<g>
		<g>
			<path class="st3" d="M133.01,220.59c2.89-4.98,8.54-4.46,11.42,0.13c2.06,3.29,2.44,7.19,2.47,11c0.03,3.57-0.51,7.17-2.42,10.25
				c-2.39,3.84-11.64,9.3-13,0.92c-0.31-1.9-3.2-1.09-2.89,0.8c0.96,5.89,7.18,7.8,12.25,5.52c6.05-2.72,8.71-9.41,9.03-15.65
				c0.33-6.29-0.66-13.98-6.08-18.06c-4.77-3.59-10.58-1.21-13.37,3.58C129.45,220.75,132.04,222.27,133.01,220.59L133.01,220.59z"
				/>
		</g>
	</g>
</g>
</svg>
