<?xml version="1.0" encoding="utf-8"?>
<!-- Generator: Adobe Illustrator 22.0.1, SVG Export Plug-In . SVG Version: 6.00 Build 0)  -->
<svg version="1.1" id="Layer_1" focusable="false" xmlns="http://www.w3.org/2000/svg" xmlns:xlink="http://www.w3.org/1999/xlink"
	 x="0px" y="0px" viewBox="0 0 272.6 47.8" style="enable-background:new 0 0 272.6 47.8;" xml:space="preserve">
<style type="text/css">
	.st0{fill:#109AD6;}
</style>
<path class="st0" d="M236.1,0c-4.7,0-8.9,0.9-12.9,4.8c-3.9,4-3.8,9.2-3.8,9.2c0,2.5,1.1,3.3,4.1,3.3c3.2,0,3.9-0.8,4.1-3
	c0.2-2.6,1.1-4.1,2.1-5.1c1.2-1.2,3.1-2.5,6-2.5c3.1,0,5,1,6.1,2.2c1.1,1.1,2.2,2.9,2.2,5.6c0,2.4-0.4,3.1-2.7,3.7
	c-2.5,0.7-7.9,2.1-11.3,3c-3.5,1-6.5,2.5-8.7,4.7c-2.1,2.1-3.3,4.8-3.3,8.5c0,3.6,1.6,7,4.5,9.5c3.3,2.8,8.7,4,15.8,3.7
	c4.2-0.2,7.4-1,9.1-1.6c3.6-1.4,4.8-2.5,4.8-6.4v-24c0-4.9-1.3-8.6-4.2-11.5C245.2,1.5,240.8,0,236.1,0L236.1,0z M243.8,36.9
	c0,1.2-0.2,1.9-0.7,2.5c-0.5,0.5-1.9,1.4-5.3,1.5c-5,0.2-7.9-0.9-9.4-2.4s-1.9-2.9-1.9-4.3c0-1.5,0.5-2.7,1.6-3.8
	c1.2-1.2,2.5-1.7,4-2.1c1-0.3,6.7-1.9,9.8-2.7c1.2-0.3,2.1-0.7,2.1-0.7C243.8,26.4,243.8,31.9,243.8,36.9L243.8,36.9z M272.6,3.6
	v40.7c0,2.7-1.3,3.4-4.2,3.4c-2.9,0-4.2-0.7-4.2-3.4V3.6c0-2.7,1.3-3.4,4.2-3.4C271.3,0.2,272.6,0.9,272.6,3.6L272.6,3.6z
	 M209.9,42.1l0,2.1c0,2.7-1.3,3.4-4.1,3.4c-2.8,0-4.1-0.7-4.1-3.4v-1.7c0-8.5-3.6-11.8-8.3-17.1c-2.7,1.8-5.4,3.6-6.3,4.2
	c-0.9,0.7-1.6,1.8-1.6,3.4v11.3c0,2.7-1.3,3.4-4.2,3.4s-4.2-0.7-4.2-3.4V3.6c0-2.7,1.3-3.4,4.2-3.4s4.2,0.7,4.2,3.4v18
	c0.3-0.3,0.7-0.5,1-0.7c3.4-2.1,6.9-4.2,9.8-6.5c2.9-2.3,4.4-5.7,4.4-9.4V3.6c0-2.7,1.3-3.4,4.1-3.4s4.1,0.7,4.1,3.4l0,1.5h0
	c0.1,6.7-2.9,12.2-8.7,16c2.3,2.8,4.7,5.3,6.5,8.2C209.4,33.1,210,37.6,209.9,42.1L209.9,42.1z M112.9,33.9
	c-1.3,0.9-2.6,1.3-3.8,1.4l-0.1,0l-1.8-2c-0.1-0.1-0.1-0.2-0.1-0.2c0-0.1,0.1-0.2,0.2-0.2c1.3-0.1,2.8-0.7,4.2-1.9
	c1.5-1.3,2.1-4.3,2.1-7.3v-3h3.8v3c0,3.1,0.7,5.7,2.1,7.1c1.3,1.2,3,2.1,4.2,2.2c0.2,0,0.3,0.2,0.3,0.2c0,0.1,0,0.2-0.1,0.2l-1.8,2
	l-0.1,0c-1.1-0.1-2.3-0.5-3.7-1.4c-1.4-0.9-2.3-1.9-2.7-3c0,0,0-0.1-0.1-0.1c0,0,0,0-0.1,0.1C115.1,32.1,114.2,33.1,112.9,33.9
	L112.9,33.9z M155.2,38.1h-10.8v-2.7h-3.7v8.3c0,0.8,0.2,1.4,0.6,1.8c0.4,0.4,1,0.6,1.7,0.6h13.5c0.7,0,1.3-0.2,1.7-0.6
	c0.4-0.4,0.6-1,0.6-1.8v-8.6h-3.7L155.2,38.1L155.2,38.1z M155.2,43.1c0,0.2,0,0.2-0.1,0.3c0,0-0.1,0.1-0.3,0.1h-10.2
	c-0.2,0-0.3,0-0.3,0c0,0,0,0,0-0.3V41h10.8L155.2,43.1L155.2,43.1z M43.8,23.3H29v-2.8h18.5c0.1,0,0.2,0,0.3,0.1
	c0.1,0.1,0.1,0.2,0.1,0.3v5c0,1.2-0.1,2.1-0.2,2.7c0,0.1-0.1,0.2-0.1,0.4l-0.1,0.2h-3.7l0.1-0.2c0.1-0.2,0.2-0.5,0.2-0.8
	c0.1-0.7,0.2-1.6,0.2-2.7v-1.9c0-0.2,0-0.3-0.1-0.3C44.1,23.4,44,23.3,43.8,23.3z M155.2,25H151c0,0,0-0.1,0-0.1l0-0.1
	c-0.4-1.4-1.3-2.6-2.6-3.5c-1.3-0.9-2.9-1.4-4.6-1.4c-2,0-3.8,0.7-5.3,2c-1.4,1.3-2.2,3-2.2,4.9s0.7,3.5,2.2,4.8
	c1.4,1.3,3.2,2,5.3,2c0.4,0,0.9,0,1.3-0.1l0,0c0.3-0.1,0.7-0.1,1-0.2c0.2,0,0.3-0.1,0.5-0.2c0.2-0.1,0.5-0.2,0.7-0.3
	c0.2-0.1,0.3-0.2,0.5-0.3c0.2-0.1,0.5-0.3,0.7-0.5c0.1-0.1,0.2-0.1,0.2-0.2l0.1-0.1c0.2-0.1,0.3-0.3,0.5-0.5
	c0.2-0.2,0.3-0.3,0.4-0.5c0.1-0.1,0.2-0.3,0.3-0.4l0,0c0.1-0.1,0.2-0.2,0.2-0.3c0.2-0.3,0.3-0.6,0.4-0.9l0-0.1
	c0.1-0.3,0.2-0.6,0.2-0.9h4.2v5.5c0.1,0.4,0.4,0.5,0.5,0.5h1.3c0.4,0,1.8-0.3,1.8-2.1V19.6h-3.6L155.2,25L155.2,25z M146.3,29.6
	c-0.7,0.8-1.6,1.2-2.5,1.2c-1,0-1.8-0.4-2.5-1.2c-0.7-0.8-1.1-1.7-1.1-2.8s0.4-2.1,1.1-2.8c0.7-0.8,1.5-1.2,2.5-1.2
	c1,0,1.8,0.4,2.5,1.2c0.7,0.8,1.1,1.7,1.1,2.8C147.4,27.9,147,28.8,146.3,29.6L146.3,29.6z M62.2,33.5L62.2,33.5
	c0.4-0.1,0.7-0.2,1-0.2c0.2,0,0.3-0.1,0.5-0.2c0.2-0.1,0.5-0.2,0.7-0.3c0.2-0.1,0.3-0.2,0.5-0.3c0.2-0.1,0.5-0.3,0.7-0.5
	c0.1-0.1,0.2-0.1,0.2-0.2l0.1-0.1c0.2-0.1,0.3-0.3,0.5-0.5c0.2-0.2,0.3-0.3,0.4-0.5c0.1-0.1,0.2-0.3,0.3-0.4l0,0
	c0.1-0.1,0.2-0.2,0.2-0.3c0.2-0.3,0.3-0.6,0.4-0.9l0-0.1c0.1-0.3,0.2-0.7,0.3-1h0l0-0.1c0.1-0.4,0.1-0.8,0.1-1.2
	c0-0.6-0.1-1.2-0.3-1.8l0-0.1c-0.4-1.4-1.3-2.6-2.6-3.5c-1.3-0.9-2.9-1.4-4.6-1.4c-2,0-3.8,0.7-5.3,2c-1.4,1.3-2.2,3-2.2,4.9
	s0.7,3.5,2.2,4.8c1.4,1.3,3.2,2,5.3,2C61.3,33.6,61.7,33.6,62.2,33.5L62.2,33.5z M57.3,26.8c0-1.1,0.4-2.1,1.1-2.8
	c0.7-0.8,1.5-1.2,2.5-1.2c1,0,1.8,0.4,2.5,1.2c0.7,0.8,1.1,1.7,1.1,2.8s-0.4,2.1-1.1,2.8c-0.7,0.8-1.6,1.2-2.5,1.2
	c-1,0-1.8-0.4-2.5-1.2C57.6,28.8,57.3,27.9,57.3,26.8L57.3,26.8z M8.8,35.7C8.8,35.7,8.9,35.7,8.8,35.7c0.4-0.1,0.6-0.1,0.9-0.2
	c0.1,0,0.3-0.1,0.4-0.2c0.2-0.1,0.4-0.2,0.6-0.3c0.1-0.1,0.3-0.2,0.4-0.2c0.2-0.1,0.4-0.3,0.6-0.4c0.1-0.1,0.1-0.1,0.2-0.2l0.1-0.1
	c0.2-0.1,0.3-0.3,0.4-0.4c0.1-0.1,0.3-0.3,0.4-0.5c0.1-0.1,0.2-0.3,0.3-0.4l0,0c0.1-0.1,0.1-0.2,0.2-0.3c0.2-0.3,0.3-0.5,0.4-0.8
	l0-0.1c0.1-0.3,0.2-0.6,0.2-0.9l0-0.1c0.1-0.4,0.1-0.7,0.1-1.1c0-0.5-0.1-1.1-0.2-1.6l0-0.1c-0.3-1-0.8-1.9-1.6-2.6h1.9
	c1.3,0,1.6-1.1,1.6-1.4v-1c0-0.1-0.1-0.4-0.4-0.4H9.6v-3.4H5.7v3.4H0v2.8h2.8C1.6,26.3,1,27.8,1,29.5c0,1.7,0.7,3.2,1.9,4.5
	c1.3,1.2,2.9,1.8,4.7,1.8C8,35.8,8.4,35.8,8.8,35.7L8.8,35.7z M4.6,29.5c0-1,0.3-1.8,0.9-2.5c0.6-0.7,1.3-1,2.1-1
	c0.8,0,1.5,0.3,2.1,1c0.6,0.7,0.9,1.5,0.9,2.5c0,1-0.3,1.8-0.9,2.5c-0.6,0.7-1.3,1-2.1,1s-1.5-0.3-2.1-1C4.9,31.3,4.6,30.5,4.6,29.5
	L4.6,29.5z M22.2,43.4v1c0,0.3-0.3,1.4-1.6,1.4H6.2c-0.8,0-1.4-0.2-1.8-0.6c-0.4-0.4-0.6-1-0.6-1.9v-6.4h3.7v5.7
	c0,0.1,0,0.2,0.1,0.2c0,0,0.1,0.1,0.2,0.1l14,0C22.1,43.1,22.2,43.3,22.2,43.4L22.2,43.4z M51.5,31.2v1c0,0.3-0.3,1.4-1.6,1.4
	l-9.7,0v3.3h7.5c0.2,0,0.3,0.1,0.3,0.1c0.1,0.1,0.1,0.2,0.1,0.3v6.8c0,1.7-1.4,2-1.8,2.1h-1.3c-0.1,0-0.5-0.1-0.5-0.5l0-5.7
	c0,0,0-0.1,0-0.1c0,0-0.1,0-0.1,0H28.5v-2.8h7.8v-3.3H25.5v-2.8h25.6C51.4,30.8,51.5,31.1,51.5,31.2L51.5,31.2z M75.9,43.9v0.9
	c0,0.3-0.2,1.4-1.6,1.4H59.7c-0.9,0-1.5-0.2-1.8-0.6c-0.4-0.4-0.5-1-0.5-1.9v-4.5h14.6v-1.8H57.3v-2.5h17.6c0.2,0,0.4,0.1,0.5,0.2
	c0.1,0.2,0.2,0.3,0.2,0.5v5.5c0,0.2-0.1,0.3-0.2,0.5c-0.1,0.1-0.3,0.2-0.5,0.2H61.1v1.6c0,0,0,0.1,0,0.1c0,0,0,0,0.1,0l14.3,0
	C75.8,43.6,75.9,43.8,75.9,43.9L75.9,43.9z M103,43.9v0.9c0,0.3-0.2,1.4-1.6,1.4H86.2c-0.9,0-1.5-0.2-1.8-0.6
	c-0.4-0.4-0.5-1-0.5-1.9v-4.3h15.3v-1.7H83.7v-2.5h18.6c0.1,0,0.2,0,0.3,0.1c0.1,0.1,0.1,0.2,0.1,0.4v5.6c0,0.2-0.1,0.3-0.2,0.5
	c-0.1,0.1-0.3,0.2-0.5,0.2H87.5v1.5c0,0,0,0.1,0,0.1c0,0,0,0,0.1,0h15C102.9,43.6,103,43.8,103,43.9L103,43.9z M131.1,43.4v1.1
	c0,0.3-0.2,1.4-1.6,1.4h-14.2c-0.8,0-1.4-0.2-1.8-0.6c-0.4-0.4-0.6-1-0.6-1.9v-6.8h3.7v6.1c0,0.1,0,0.2,0.1,0.2
	c0.1,0,0.1,0.1,0.2,0.1l13.7,0C131,43.1,131.1,43.3,131.1,43.4L131.1,43.4z M105.9,31.2v1c0,0.3-0.2,1.4-1.6,1.4H79.9v-2.8h10.4
	v-2.7h-6.6v-2.8h15.5v-1.9c0-0.2,0-0.3-0.1-0.3c0,0-0.1-0.1-0.3-0.1H83.4v-2.8h19.1c0.1,0,0.2,0,0.3,0.1c0.1,0.1,0.1,0.2,0.1,0.3
	v4.8c0,1.4-0.1,2.4-0.4,3c-0.2,0.6-0.6,1.1-1,1.7l0,0H98l0.2-0.2c0.2-0.3,0.4-0.6,0.5-0.9c0.1-0.3,0.2-0.5,0.3-0.9h-4.8v2.7h11.4
	C105.8,30.8,105.9,31,105.9,31.2L105.9,31.2z M135.2,26.9v1.2c0,0.3-0.2,1.4-1.6,1.4h-2.8v7.2c0,1.7-1.4,2-1.8,2.1h-1.3
	c-0.2,0-0.5-0.1-0.5-0.5V19.6h3.6v6.9h4C135.1,26.5,135.2,26.8,135.2,26.9L135.2,26.9z M79.7,25.2v1.2c0,0.3-0.2,1.4-1.6,1.4h-2.5
	V32c0,1.7-1.4,2-1.8,2.1h-1.3c-0.1,0-0.5-0.1-0.5-0.5V19.6h3.6v5.2h3.7C79.6,24.9,79.7,25.1,79.7,25.2L79.7,25.2z M24.7,29.4H22v7.3
	c0,1.7-1.4,2-1.8,2.1h-1.3c-0.1,0-0.5-0.1-0.5-0.5V19.6H22v6.8h3.9c0.3,0,0.4,0.3,0.4,0.4V28C26.3,28.3,26.1,29.4,24.7,29.4
	L24.7,29.4z"/>
</svg>
